# xmcd
#
# Track frame offsets:
#	150
#	25469
#	44284
#	64187
#	82818
#	98433
#	118461
#	139828
#	158309
#	174782
#	189303
#
# Disc length: 2785 seconds
#
# Revision: 0
# Processed by: cddbd v1.5.2PL0 Copyright (c) Steve Scherf et al.
# Submitted via: EasyCDDAExtractor 16.0.9.1
#
DISCID=800adf0b
DTITLE=Various Artist - Mãi Cho Em Mùa Xuân
DYEAR=2015
DGENRE=Pop
TTITLE0=Kỳ Phương Uyên and Diễm Sương - Xuân Đã Về
TTITLE1=Tóc Tiên - Đón Xuân
TTITLE2=Mai Tiến Dũng - Chúc Xuân Tài Lộc ©
TTITLE3=Lam Anh and Trịnh Lam - Sớm Nay Mùa Xuân ©
TTITLE4=Đoàn Trọng - Xuân Bên Em
TTITLE5=Tuấn Anh - Mãi Cho Em Mùa Xuân
TTITLE6=Minh Tuyết - Thư Của Mẹ
TTITLE7=Hương Thủy - Ước Nguyện Đầu Xuân
TTITLE8=Ánh Minh and Mai Tiến Dũng - Thiên Duyên Tiền Định
TTITLE9=Ngọc Anh and Hoàng Anh Khang - Hoa Cỏ Mùa Xuân
TTITLE10=Thanh Hà and Đình Bảo - Xuân Vui Ca
EXTD=
EXTT0=
EXTT1=
EXTT2=
EXTT3=
EXTT4=
EXTT5=
EXTT6=
EXTT7=
EXTT8=
EXTT9=
EXTT10=
PLAYORDER=
